<svg xmlns="http://www.w3.org/2000/svg" version="1.1" xmlns:xlink="http://www.w3.org/1999/xlink" width="1000" height="1000"><g clip-path="url(#SvgjsClipPath1657)"><rect width="1000" height="1000" fill="#ffedd9"></rect><g transform="matrix(0.16,0,0,0.16,100,203.83999999999992)"><svg xmlns="http://www.w3.org/2000/svg" version="1.1" xmlns:xlink="http://www.w3.org/1999/xlink" width="5000" height="3702"><svg xmlns="http://www.w3.org/2000/svg" xmlns:xlink="http://www.w3.org/1999/xlink" width="5000" height="3702" viewBox="0 0 5000 3702"><path fill="#B66F47" transform="scale(9.76562 9.76781)" d="M141.903 61.2823C214.321 59.7365 274.272 117.209 275.784 189.628C277.295 262.047 219.795 321.971 147.375 323.448C75.0034 324.925 15.1285 267.471 13.6179 195.1C12.1073 122.729 69.5326 62.827 141.903 61.2823ZM142.938 301.414C156.598 301.786 175.273 293.63 184.864 284.043C211.424 257.496 217.283 213.103 215.023 177.065C212.417 135.509 194.045 84.883 145.217 83.6122C144.961 83.6057 144.705 83.6007 144.449 83.5973C140.181 83.7032 135.275 84.9071 131.158 86.0019C120.468 88.8444 109.129 93.4104 101.342 101.577C95.8144 107.374 90.9633 116.365 87.6409 123.618C76.0361 149.114 70.5112 176.957 71.5015 204.953C72.2074 232.032 79.3976 264.304 99.7483 283.746C112.131 295.576 125.987 300.38 142.938 301.414Z"></path><path fill="#B66F47" transform="scale(9.76562 9.76781)" d="M338.027 62.6243C345.538 62.3919 373.877 61.4694 379.516 65.2152C383.44 67.8224 388.322 79.2878 390.409 83.8915C396.981 98.3907 402.432 113.493 408.228 128.318L444.929 224.373C452.432 243.948 459.804 266.391 470.563 284.396C477.089 295.318 491.536 306.738 501.48 315.23C497.377 315.407 492.414 315.282 488.255 315.277L464.434 315.245L389.813 315.314C391.849 311.508 397.46 305.782 400.308 302.006C404.733 296.14 406.779 290.809 409.758 284.121C407.952 280.556 404.74 271.012 403.117 266.792L397.572 252.44C396.652 250.057 394.917 245.832 394.391 243.482C390.473 243.48 385.406 243.234 381.572 242.769C366.541 241.852 350.64 242.756 335.529 242.517C329.204 242.417 314.489 243.116 308.916 241.35C308.373 243.94 306.963 247.624 306.058 250.163C304.497 254.459 303.007 258.781 301.59 263.127C298.192 273.779 296.485 282.041 293.827 292.626C300.486 298.878 305.825 306.531 311.699 313.412C299.502 315.675 281.831 315.891 269.429 316.177C259.893 316.397 249.045 316.622 239.545 316.404C244.543 309.379 253.702 303.823 258.719 295.386C273.114 271.329 281.746 244.514 291.675 218.478C304.924 184.03 317.438 149.37 328.331 114.098C330.894 105.797 333.936 94.759 337.842 87.0264C330.439 81.1504 321.914 70.9316 316.337 63.299C321.821 63.9108 332.445 63.0425 338.027 62.6243ZM313.227 223.029C316.979 222.314 321.259 222.406 325.079 222.111C333.324 221.474 341.448 221.517 349.709 221.481C361.624 221.45 374.508 220.932 386.325 222.201C381.657 211.229 353.774 132.111 349.778 129.834C348.865 132.884 347.349 136.604 346.205 139.622C343.956 145.413 341.764 151.227 339.63 157.061C333.326 174.273 326.857 191.682 319.772 208.591C318.425 211.804 314.924 220.232 313.227 223.029Z"></path></svg></svg></g></g><defs><clipPath id="SvgjsClipPath1657"><rect width="1000" height="1000" x="0" y="0" rx="350" ry="350"></rect></clipPath></defs></svg>